<?xml version="1.0" encoding="UTF-8"?>
<!DOCTYPE svg PUBLIC "-//W3C//DTD SVG 1.1//EN" "http://www.w3.org/Graphics/SVG/1.1/DTD/svg11.dtd">
<!-- Creator: CorelDRAW -->
<svg xmlns="http://www.w3.org/2000/svg" xml:space="preserve" width="300mm" height="250mm" style="shape-rendering:geometricPrecision; text-rendering:geometricPrecision; image-rendering:optimizeQuality; fill-rule:evenodd; clip-rule:evenodd"
viewBox="0 0 300 250"
 xmlns:xlink="http://www.w3.org/1999/xlink">
 <defs>
  <style type="text/css">
   <![CDATA[
    .str0 {stroke:#B2B2B2;stroke-width:0.0762}
    .fil1 {fill:#B2B2B2}
    .fil2 {fill:white}
    .fil0 {fill:#B2B2B2;fill-rule:nonzero}
   ]]>
  </style>
 </defs>
 <g id="Layer_x0020_1">
  <metadata id="CorelCorpID_0Corel-Layer"/>
  <g id="_95721288">
   <path id="_94976592" class="fil0" d="M176.395 179.595c0,0.9549 -0.4361,2.0759 -1.3082,3.363 -0.1586,-0.1661 -0.2577,-0.2907 -0.2973,-0.3737 0.5946,-1.1625 0.892,-2.1589 0.892,-2.9893 0,-2.9478 -2.0218,-5.3143 -6.0654,-7.0996 -3.211,-1.4116 -6.4419,-2.1174 -9.6926,-2.1174 -3.5678,0 -7.3734,0.8304 -11.417,2.4911 -2.3785,1.0379 -5.9464,2.5741 -10.7034,4.6085 -3.9246,1.6607 -7.4925,2.4911 -10.7035,2.4911 -5.7879,0 -10.4657,-2.0967 -14.0335,-6.29 -3.3696,-4.0273 -5.0544,-9.1132 -5.0544,-15.2579 0,-7.6393 2.6462,-14.1784 7.9384,-19.6173 5.2923,-5.4389 11.5855,-8.1583 18.8797,-8.1583 2.1804,0 4.7968,0.1868 7.8493,0.5605 1.9425,0.2491 3.2308,0.3944 3.8651,0.4359 7.2546,-4.2348 13.6965,-6.3522 19.3258,-6.3522 4.0038,0 6.0057,1.204 6.0057,3.612 0,1.9929 -1.1892,3.5083 -3.5678,4.5463 -1.7839,0.7473 -3.7859,1.121 -6.0058,1.121 -2.22,0 -6.0256,-0.3945 -11.4171,-1.1833 -2.3388,2.0344 -4.8958,4.65 -7.6707,7.8469 -2.0615,2.3665 -3.9049,5.3143 -5.5302,8.8434 -1.3875,3.0308 -2.1011,5.6464 -2.1407,7.8469 -0.0396,1.5361 0.3767,2.7817 1.2487,3.7366 0,-0.2076 0,-0.5605 0,-1.0587 0,-3.8612 1.3876,-7.8054 4.1625,-11.8327 3.2903,-4.7745 7.1753,-7.1618 11.6549,-7.1618 1.4668,0 2.6164,0.5086 3.4489,1.5258 0.8325,1.0172 1.2487,2.4184 1.2487,4.2037 0,4.1103 -1.7541,8.1583 -5.2625,12.144 -3.5083,3.9857 -7.205,5.9786 -11.09,5.9786 -0.2775,0 -0.6541,0 -1.1298,0 0.991,1.204 2.2398,1.806 3.7462,1.806 3.7661,0 7.8096,-2.8855 12.1307,-8.6565l0.4756 0.5605c-4.202,5.9786 -8.4041,8.9679 -12.6063,8.9679 -2.22,0 -4.1426,-1.1625 -5.7679,-3.4875 -3.7661,-1.9513 -5.6492,-5.6049 -5.6492,-10.9608 0,-4.8991 2.0615,-9.7775 6.1844,-14.6351 2.537,-2.9893 5.0147,-5.2105 7.4329,-6.6636 0,-0.3322 -1.5857,-0.602 -4.7571,-0.8096 -2.4975,-0.1661 -4.559,-0.2491 -6.1843,-0.2491 -7.2545,0 -13.4784,2.8232 -18.6716,8.4696 -4.9949,5.3974 -7.4924,11.6043 -7.4924,18.6209 0,5.8125 1.6452,10.6909 4.9355,14.6351 3.4489,4.1518 7.9484,6.2277 13.4983,6.2277 2.8542,0 6.3032,-0.8303 10.3467,-2.4911 2.4181,-1.0379 6.0851,-2.5741 11.0008,-4.6085 4.1624,-1.6607 7.988,-2.4911 11.4764,-2.4911 3.7264,0 7.1556,0.7059 10.2873,2.1175 4.1228,1.8268 6.1842,4.4216 6.1842,7.7846zm-5.1733 -50.6936c0,-1.9513 -1.7839,-2.927 -5.3517,-2.927 -3.3697,0 -7.9484,2.2628 -13.7362,6.7882 4.8363,0.7474 8.2258,1.121 10.1683,1.121 5.9463,0 8.9196,-1.6607 8.9196,-4.9822zm-15.9363 17.9981c0,-2.7817 -1.3083,-4.1725 -3.9247,-4.1725 -3.2903,0 -6.422,2.0966 -9.3952,6.2899 -2.775,3.9027 -4.1624,7.6394 -4.1624,11.2099 0,0.9134 0.218,1.9929 0.654,3.2384 0.7929,0.5398 1.6056,0.8096 2.4381,0.8096 3.2903,0 6.5608,-2.2004 9.8115,-6.6013 3.0525,-4.1103 4.5787,-7.7016 4.5787,-10.774z"/>
   <path id="_949765921" class="fil0" d="M190.022 150.263c-7.532,9.6322 -12.7451,14.4483 -15.639,14.4483 -1.9424,0 -3.4489,-1.204 -4.5191,-3.6121 -1.7047,2.4081 -3.5877,3.6121 -5.6492,3.6121 -2.656,0 -3.984,-2.0344 -3.984,-6.1032 0,-3.1138 1.2289,-6.0616 3.6868,-8.8433 2.6957,-3.0724 5.8869,-4.6085 9.5736,-4.6085 1.3875,0 2.3984,0.4982 3.0327,1.4946 0.4757,-0.6228 0.892,-0.9341 1.2487,-0.9341 0.1586,0 0.5748,0.0622 1.2487,0.1868 0.6739,0.1245 1.0902,0.1868 1.2488,0.1868 0.1585,0 0.4856,-0.2698 0.9811,-0.8096 0.4956,-0.5397 0.8226,-0.8303 0.9812,-0.8719l-7.7898 15.3202c-0.6739,1.3286 -1.0108,2.2835 -1.0108,2.8648 0,0.8303 0.436,1.2455 1.3082,1.2455 1.3082,0 3.9047,-2.0136 7.7897,-6.0409 2.7353,-2.8232 5.0742,-5.4804 7.0167,-7.9714l0.4757 0.4359zm-14.3902 -2.4911c0,-0.9964 -0.4162,-1.4946 -1.2488,-1.4946 -2.3388,0 -4.7768,2.1381 -7.314,6.4145 -2.2596,3.8197 -3.3894,6.8505 -3.3894,9.0925 0,1.3701 0.3964,2.0551 1.1893,2.0551 1.5857,0 3.1516,-1.3701 4.6976,-4.1103 4.0435,-7.2241 6.0653,-11.2099 6.0653,-11.9572z"/>
   <path id="_9497659212" class="fil0" d="M207.495 150.263c-2.7353,4.3594 -4.9355,7.4317 -6.6005,9.217 -3.1714,3.4875 -6.3031,5.2313 -9.3952,5.2313 -2.0614,0 -3.112,-1.5154 -3.1516,-4.5462 0,-0.9965 0.8225,-2.9478 2.4677,-5.8541 1.6452,-2.9063 2.4678,-4.567 2.4678,-4.9822 0,-0.2906 -0.0793,-0.4359 -0.2379,-0.4359 -0.2775,0 -0.7829,0.3218 -1.5163,0.9653 -0.7334,0.6435 -1.4767,0.9653 -2.2299,0.9653 -0.9514,0 -1.4271,-0.7889 -1.4271,-2.3665 0,-0.955 0.3469,-1.9825 1.0405,-3.0828 0.6938,-1.1002 1.4768,-1.6503 2.3489,-1.6503 0.9514,0 1.4271,0.4775 1.4271,1.4324 0,1.1625 -0.6937,2.5948 -2.0812,4.2971 1.2685,-1.121 2.4975,-2.1589 3.6867,-3.1139 0.9515,-0.7888 1.8038,-1.1832 2.557,-1.1832 0.5946,0 1.0902,0.2387 1.4866,0.7162 0.3964,0.4774 0.5946,1.0483 0.5946,1.7126 0,0.5397 -0.4162,1.5569 -1.2487,3.0516l-4.6977 8.4074c-0.7531,1.3285 -1.1297,2.1797 -1.1297,2.5533 0,1.121 0.5153,1.6815 1.546,1.6815 3.1318,0 7.6708,-4.4839 13.6172,-13.4518l0.4757 0.4359zm-15.6984 -5.0445c0,-0.3736 -0.1784,-0.5604 -0.5352,-0.5604 -0.5947,0 -1.1496,0.467 -1.665,1.4012 -0.5153,0.9341 -0.773,1.7334 -0.773,2.3977 0,0.7058 0.218,1.0587 0.6541,1.0587 1.5461,-2.0759 2.3191,-3.5083 2.3191,-4.2972z"/>
   <path id="_94976592123" class="fil0" d="M221.479 150.263c-0.5947,0.9549 -2.4578,3.5705 -5.5897,7.8469 -3.2507,4.4009 -6.7193,6.6014 -10.4061,6.6014 -0.8722,0 -1.6154,-0.3944 -2.2299,-1.1833 -0.6144,-0.7888 -0.9217,-1.7437 -0.9217,-2.8647 0,-1.0795 0.4163,-2.5119 1.2488,-4.2972l4.6382 -9.902 -4.341 0 0.9515 -0.9342 4.7572 0c1.9424,-1.287 3.7065,-2.927 5.2922,-4.9199 0.9911,-1.2455 2.3587,-3.2799 4.1029,-6.1031l0.6542 0 -6.0059 11.023 4.4598 0 -0.3568 0.9342 -4.4598 0 -6.1842 11.3344c-0.8721,1.5777 -1.3082,2.6779 -1.3082,3.3007 0,0.4982 0.1685,1.0172 0.5055,1.5569 0.337,0.5398 0.6838,0.8096 1.0406,0.8096 1.1496,0 2.6164,-0.7265 4.4003,-2.1797 1.4272,-1.1625 2.6164,-2.3873 3.5679,-3.6743 1.11,-1.4531 3.0127,-4.048 5.7085,-7.7846l0.4757 0.4359z"/>
   <path id="_949765921234" class="fil0" d="M243.48 150.263c-1.3478,1.7438 -3.7859,3.6536 -7.3141,5.7295 -0.5946,0.2491 -1.4865,0.5605 -2.6758,0.9341 -1.2289,2.1175 -2.9137,3.9235 -5.0544,5.4181 -2.2993,1.5777 -4.5391,2.3666 -6.7194,2.3666 -1.3478,0 -2.4578,-0.6228 -3.33,-1.8683 -0.7929,-1.121 -1.1893,-2.4081 -1.1893,-3.8612 0,-3.529 1.3974,-6.7156 4.1923,-9.5595 2.7947,-2.844 5.8769,-4.266 9.2465,-4.266 1.3875,0 2.5371,0.5605 3.4489,1.6815 0.9118,1.1209 1.3677,2.5118 1.3677,4.1725 0,0.9965 -0.1784,1.9514 -0.5352,2.8648 -0.1586,0.4151 -0.4559,1.121 -0.892,2.1174 0.3172,-0.0415 0.9119,-0.2699 1.784,-0.6851 2.1406,-1.0379 4.5391,-2.8647 7.1951,-5.4803l0.4757 0.4359zm-11.5954 -2.8025c0,-1.0379 -0.4757,-1.5569 -1.4272,-1.5569 -1.8631,0 -4.0038,2.1797 -6.422,6.5391 -2.2994,4.0688 -3.449,7.2034 -3.449,9.4038 0,1.3701 0.3766,2.0552 1.1299,2.0552 2.0614,0 4.5192,-2.4911 7.3734,-7.4733 -2.1802,-0.7473 -3.2704,-1.7645 -3.2704,-3.0516 0,-1.3285 0.6144,-1.9928 1.8433,-1.9928 0.8326,0 1.2488,0.4359 1.2488,1.3078 0,0.7058 -0.5352,1.121 -1.6056,1.2455 0.2776,1.038 1.0308,1.6608 2.2597,1.8684 1.5461,-3.446 2.3191,-6.2278 2.3191,-8.3452zm3.439 -13.7632c0,0.8303 -0.4163,1.6607 -1.2488,2.4911l-8.979 4.9199 -1.7839 0 7.0167 -8.3452c0.7928,-0.9549 1.5857,-1.4323 2.3786,-1.4323 0.7928,0 1.4271,0.2283 1.9028,0.685 0.4757,0.4567 0.7136,1.0172 0.7136,1.6815z"/>
   <path id="_9497659212345" class="fil0" d="M260.953 150.263c-2.7353,4.3594 -4.9355,7.4317 -6.6005,9.217 -3.1714,3.4875 -6.3031,5.2313 -9.3952,5.2313 -2.0614,0 -3.112,-1.5154 -3.1516,-4.5462 0,-0.9965 0.8225,-2.9478 2.4677,-5.8541 1.6452,-2.9063 2.4678,-4.567 2.4678,-4.9822 0,-0.2906 -0.0793,-0.4359 -0.2379,-0.4359 -0.2775,0 -0.7829,0.3218 -1.5163,0.9653 -0.7334,0.6435 -1.4767,0.9653 -2.2299,0.9653 -0.9514,0 -1.4271,-0.7889 -1.4271,-2.3665 0,-0.955 0.3469,-1.9825 1.0405,-3.0828 0.6938,-1.1002 1.4768,-1.6503 2.3489,-1.6503 0.9514,0 1.4271,0.4775 1.4271,1.4324 0,1.1625 -0.6937,2.5948 -2.0812,4.2971 1.2685,-1.121 2.4975,-2.1589 3.6867,-3.1139 0.9515,-0.7888 1.8038,-1.1832 2.557,-1.1832 0.5946,0 1.0902,0.2387 1.4866,0.7162 0.3964,0.4774 0.5946,1.0483 0.5946,1.7126 0,0.5397 -0.4162,1.5569 -1.2487,3.0516l-4.6977 8.4074c-0.7531,1.3285 -1.1297,2.1797 -1.1297,2.5533 0,1.121 0.5153,1.6815 1.546,1.6815 3.1318,0 7.6708,-4.4839 13.6172,-13.4518l0.4757 0.4359zm-15.6984 -5.0445c0,-0.3736 -0.1784,-0.5604 -0.5352,-0.5604 -0.5947,0 -1.1496,0.467 -1.665,1.4012 -0.5153,0.9341 -0.773,1.7334 -0.773,2.3977 0,0.7058 0.218,1.0587 0.6541,1.0587 1.5461,-2.0759 2.3191,-3.5083 2.3191,-4.2972z"/>
   <path id="_94976592123456" class="fil0" d="M271.369 137.932c0,0.9134 -0.2972,1.7334 -0.8919,2.46 -0.5947,0.7265 -1.2686,1.0898 -2.0218,1.0898 -0.6342,0 -1.1694,-0.2387 -1.6055,-0.7162 -0.4361,-0.4774 -0.6541,-1.0483 -0.6541,-1.7126 0,-0.8719 0.3072,-1.6296 0.9216,-2.2731 0.6146,-0.6435 1.3182,-0.9653 2.1111,-0.9653 0.5945,0 1.1,0.2076 1.5162,0.6228 0.4163,0.4152 0.6244,0.9134 0.6244,1.4946zm3.5679 12.3309c-7.77,9.6322 -12.983,14.4483 -15.639,14.4483 -2.4578,0 -3.6868,-1.2248 -3.6868,-3.6744 0,-1.8683 0.7334,-4.2348 2.2002,-7.0996 0.8324,-1.5361 2.0614,-3.8404 3.6867,-6.9127 0.4758,-0.8719 1.011,-1.3078 1.6055,-1.3078 0.5551,0 1.0208,0.0934 1.3974,0.2802 0.3767,0.1868 0.5848,0.2803 0.6244,0.2803 0.1586,0 0.5253,-0.301 1.1001,-0.9031 0.5748,-0.602 0.9614,-0.9237 1.1596,-0.9653l-7.5519 15.0711c-0.3568,0.7058 -0.5352,1.4947 -0.5352,2.3665 0,1.0795 0.4559,1.6192 1.3677,1.6192 0.9118,0 3.3101,-2.0551 7.1951,-6.1654 2.8939,-3.0723 5.0941,-5.5634 6.6005,-7.4732l0.4757 0.4359z"/>
   <path id="_949765921234567" class="fil0" d="M296.938 150.263c-1.3478,1.7438 -3.7859,3.6536 -7.3141,5.7295 -0.5946,0.2491 -1.4865,0.5605 -2.6758,0.9341 -1.2289,2.1175 -2.9137,3.9235 -5.0544,5.4181 -2.2993,1.5777 -4.5391,2.3666 -6.7194,2.3666 -1.3478,0 -2.4578,-0.6228 -3.33,-1.8683 -0.7929,-1.121 -1.1893,-2.4081 -1.1893,-3.8612 0,-3.529 1.3974,-6.7156 4.1923,-9.5595 2.7947,-2.844 5.8769,-4.266 9.2465,-4.266 1.3875,0 2.5371,0.5605 3.4489,1.6815 0.9118,1.1209 1.3677,2.5118 1.3677,4.1725 0,0.9965 -0.1784,1.9514 -0.5352,2.8648 -0.1586,0.4151 -0.4559,1.121 -0.892,2.1174 0.3172,-0.0415 0.9119,-0.2699 1.784,-0.6851 2.1406,-1.0379 4.5391,-2.8647 7.1951,-5.4803l0.4757 0.4359zm-11.5954 -2.8025c0,-1.0379 -0.4757,-1.5569 -1.4272,-1.5569 -1.8631,0 -4.0038,2.1797 -6.422,6.5391 -2.2994,4.0688 -3.449,7.2034 -3.449,9.4038 0,1.3701 0.3766,2.0552 1.1299,2.0552 2.0614,0 4.5192,-2.4911 7.3734,-7.4733 -2.1802,-0.7473 -3.2704,-1.7645 -3.2704,-3.0516 0,-1.3285 0.6144,-1.9928 1.8433,-1.9928 0.8326,0 1.2488,0.4359 1.2488,1.3078 0,0.7058 -0.5352,1.121 -1.6056,1.2455 0.2776,1.038 1.0308,1.6608 2.2597,1.8684 1.5461,-3.446 2.3191,-6.2278 2.3191,-8.3452z"/>
   <path id="_94969760" class="fil0" d="M63.6859 227.534l0 -60.5156 20.8388 0c4.7059,0 8.2988,0.2959 10.7786,0.8735 3.4661,0.7891 6.425,2.2403 8.8766,4.3256 3.1843,2.7052 5.5796,6.1432 7.1576,10.3419 1.5922,4.1988 2.3812,8.9893 2.3812,14.3857 0,4.5932 -0.5354,8.6652 -1.6203,12.2158 -1.0709,3.5506 -2.4376,6.4954 -4.1283,8.8202 -1.6767,2.3248 -3.5084,4.1565 -5.5091,5.481 -1.9867,1.3385 -4.3961,2.3529 -7.214,3.0433 -2.8321,0.6904 -6.0727,1.0286 -9.722,1.0286l-21.8391 0zm8.003 -7.1435l12.9203 0c3.9874,0 7.1294,-0.3664 9.3979,-1.1131 2.2684,-0.7468 4.0719,-1.7894 5.4246,-3.142 1.9021,-1.8881 3.3815,-4.4524 4.4382,-7.6508 1.0568,-3.2125 1.5922,-7.0871 1.5922,-11.6663 0,-6.3263 -1.0427,-11.1873 -3.1139,-14.583 -2.0853,-3.4097 -4.6073,-5.6781 -7.5803,-6.8335 -2.1416,-0.8313 -5.6077,-1.2399 -10.356,-1.2399l-12.723 0 0 46.2286z"/>
   <path id="_949697601" class="fil0" d="M123.821 175.571l0 -8.5525 7.4394 0 0 8.5525 -7.4394 0zm0 51.9631l0 -43.8333 7.4394 0 0 43.8333 -7.4394 0z"/>
   <path id="_9496976012" class="fil0" d="M141.208 231.169l7.2281 1.0708c0.2959,2.2262 1.1413,3.8465 2.508,4.8751 1.8457,1.3667 4.3678,2.0571 7.5521,2.0571 3.452,0 6.1009,-0.6904 7.9748,-2.0571 1.874,-1.3808 3.128,-3.3111 3.7902,-5.7769 0.3945,-1.5217 0.5636,-4.6919 0.5354,-9.5387 -3.2407,3.8183 -7.2844,5.7345 -12.1313,5.7345 -6.0304,0 -10.6942,-2.1698 -13.9912,-6.5236 -3.297,-4.3396 -4.9596,-9.5669 -4.9596,-15.6396 0,-4.1847 0.7609,-8.0453 2.2685,-11.5818 1.5217,-3.5366 3.7197,-6.27 6.594,-8.2003 2.8743,-1.9162 6.2559,-2.8884 10.1306,-2.8884 5.1709,0 9.4401,2.0994 12.7935,6.2841l0 -5.2837 6.8617 0 0 37.8874c0,6.8195 -0.7045,11.6664 -2.0853,14.5125 -1.3949,2.8461 -3.5929,5.1005 -6.6081,6.749 -3.0152,1.6485 -6.7208,2.4798 -11.1309,2.4798 -5.2273,0 -9.4543,-1.1835 -12.6667,-3.5365 -3.2266,-2.353 -4.7765,-5.8896 -4.6638,-10.6237zm6.1432 -26.3338c0,5.7486 1.1413,9.9473 3.4379,12.5821 2.2825,2.6489 5.1428,3.9593 8.5807,3.9593 3.4097,0 6.2699,-1.3104 8.5807,-3.9311 2.3107,-2.6348 3.466,-6.749 3.466,-12.3708 0,-5.3682 -1.1835,-9.412 -3.5647,-12.1313 -2.3811,-2.7193 -5.2555,-4.0861 -8.6088,-4.0861 -3.297,0 -6.1009,1.3386 -8.4257,4.0297 -2.3107,2.6771 -3.4661,6.6645 -3.4661,11.9482z"/>
   <path id="_94969760123" class="fil0" d="M189.62 175.571l0 -8.5525 7.4394 0 0 8.5525 -7.4394 0zm0 51.9631l0 -43.8333 7.4394 0 0 43.8333 -7.4394 0z"/>
   <path id="_949697601234" class="fil0" d="M224.591 220.884l1.0708 6.5659c-2.0853,0.4367 -3.9592,0.6622 -5.6077,0.6622 -2.7053,0 -4.7905,-0.4227 -6.2841,-1.2822 -1.4794,-0.8454 -2.522,-1.9726 -3.1279,-3.3674 -0.6059,-1.3808 -0.9158,-4.3115 -0.9158,-8.7639l0 -25.2207 -5.4528 0 0 -5.7768 5.4528 0 0 -10.8632 7.3971 -4.4524 0 15.3156 7.4676 0 0 5.7768 -7.4676 0 0 25.6293c0,2.1276 0.1268,3.4802 0.3804,4.086 0.2677,0.6059 0.6904,1.085 1.2822,1.4513 0.5918,0.3522 1.4372,0.5354 2.5362,0.5354 0.8313,0 1.9162,-0.0986 3.2688,-0.2959z"/>
   <path id="_9496976012345" class="fil0" d="M260.464 222.123c-2.7616,2.3389 -5.4105,3.9874 -7.9466,4.9596 -2.5503,0.9581 -5.2837,1.4372 -8.2003,1.4372 -4.8187,0 -8.5102,-1.1695 -11.1027,-3.5225 -2.5785,-2.353 -3.8747,-5.3682 -3.8747,-9.0174 0,-2.1558 0.479,-4.1142 1.4653,-5.8896 0.9722,-1.7753 2.2544,-3.1983 3.8324,-4.2692 1.5922,-1.0708 3.3675,-1.888 5.3542,-2.4375 1.4512,-0.3804 3.6492,-0.7608 6.594,-1.1131 6.0022,-0.7186 10.4264,-1.5639 13.2585,-2.5643 0.0281,-1.0145 0.0422,-1.6626 0.0422,-1.9303 0,-3.0293 -0.7045,-5.171 -2.1134,-6.3968 -1.8881,-1.6908 -4.7201,-2.5221 -8.4539,-2.5221 -3.4943,0 -6.0727,0.6059 -7.7494,1.8317 -1.6626,1.2258 -2.8884,3.3957 -3.6915,6.5095l-7.2562 -1.0004c0.6622,-3.0997 1.7471,-5.6218 3.2547,-7.5239 1.5076,-1.9162 3.7056,-3.3957 6.5658,-4.4242 2.8603,-1.0286 6.1714,-1.5499 9.9474,-1.5499 3.7479,0 6.7772,0.4509 9.1161,1.3244 2.3389,0.8877 4.0579,1.9867 5.171,3.3252 1.099,1.3386 1.8598,3.0153 2.3107,5.0583 0.2395,1.2681 0.3663,3.5506 0.3663,6.8476l0 9.9051c0,6.9181 0.155,11.2859 0.4791,13.1035 0.3099,1.8317 0.944,3.5929 1.8739,5.2696l-7.7635 0c-0.7608,-1.5358 -1.268,-3.3393 -1.4794,-5.4105zm-0.6199 -16.5977c-2.7053,1.1131 -6.749,2.043 -12.1313,2.8179 -3.0575,0.4368 -5.2273,0.9299 -6.4813,1.4794 -1.2681,0.5495 -2.2544,1.3527 -2.9307,2.4235 -0.6904,1.0567 -1.0427,2.2262 -1.0427,3.5224 0,1.9867 0.7609,3.6352 2.2544,4.9596 1.4935,1.3104 3.6915,1.9726 6.5799,1.9726 2.8603,0 5.4105,-0.6199 7.6367,-1.8739 2.2262,-1.254 3.8747,-2.973 4.9173,-5.1428 0.8032,-1.6767 1.1977,-4.1565 1.1977,-7.4253l0 -2.7334z"/>
   <polygon id="_94969760123456" class="fil0" points="278.71,227.534 278.71,167.018 286.135,167.018 286.135,227.534 "/>
   <g>
    <path id="_95472384" class="fil1" d="M39.0563 174.68c6.528,6.0781 2.3376,15.0794 3.5064,22.6192 4.1827,-7.8642 4.1065,-12.332 5.71,-19.0737 2.9884,5.0447 1.0455,11.2801 1.5321,16.4052 2.9397,-6.54 6.8815,-15.807 1.7876,-24.9512 4.3238,0.2058 4.8948,11.3289 4.1757,19.2604 2.6522,-4.5282 3.8427,-21.0596 2.0101,-26.6627 9.3399,1.866 22.87,-1.4432 32.8943,-6.4268 -10.5705,0.4048 -19.3125,-0.1656 -23.6661,-5.0026 14.4321,4.3472 28.2338,0.5012 44.3664,-12.4641 -12.5215,4.8617 -19.7108,4.5451 -31.4769,1.0573 25.3177,0.246 40.3483,-7.7198 48.1997,-20.4837 -16.7305,9.3108 -33.5341,8.6272 -37.5971,4.7146 32.5184,-1.1104 43.588,-14.4611 51.0971,-23.3623 -11.6892,6.0106 -21.5741,11.4163 -35.2364,8.3502 33.5264,-7.9737 42.3837,-13.5608 55.22,-39.441 -16.1502,12.111 -33.6646,14.2962 -37.0253,13.1802 20.6974,-4.6775 37.0253,-13.1802 40.6156,-25.5607 -7.7069,7.718 -26.8236,11.6933 -31.7771,10.4831 51.2596,-8.7652 30.941,-41.9725 80.6151,-62.6501 -54.0379,28.6448 -73.6009,-3.2297 -100.504,46.8772 -0.8213,-6.8885 4.753,-14.7283 14.1147,-23.9569 -26.6232,9.9352 -25.0366,17.8286 -30.7347,34.1145 -2.1074,-5.6015 -1.0839,-12.5448 1.3629,-20.0983 -17.7564,8.696 -15.346,21.8932 -18.2081,39.4476 -1.8204,-7.8829 -2.2395,-14.3878 1.4668,-25.8471 -24.301,26.5179 -16.2834,33.3663 -20.611,45.0292 -1.673,-9.2963 -1.1452,-13.5162 3.1437,-25.007 -12.1437,19.8066 -16.1099,27.3535 -15.9136,50.1036 -3.7183,-7.5719 -2.9689,-11.0986 -1.5674,-25.497 -5.3255,11.5395 -9.7582,27.7791 -11.1431,42.3411 -9.1062,0.2889 -15.9269,4.1878 -21.498,16.5447 3.8923,-4.0254 11.824,-7.2962 16.1104,-4.9939 -7.6188,4.0688 -14.8498,3.3427 -19.7157,18.4967 5.6463,-4.4087 13.0926,-10.9204 16.7377,-9.2361 -3.8938,2.4366 -12.2019,8.7735 -11.9409,17.1997 4.409,-3.2884 8.3269,-11.661 15.3823,-10.6886 27.9148,-56.2467 84.4135,-120.497 124.943,-133.057 -36.145,27.7829 -73.0422,59.8396 -116.376,138.237z"/>
    <path id="_94786920" class="fil1" d="M10.2892 218.255c24.6577,-65.219 82.4289,-151.019 135.635,-175.732 -60.7711,41.0802 -102.409,110.953 -132.934,176.161l-3.6834 5.1021 0.9826 -5.5315z"/>
    <g>
     <path id="_95720544" class="fil1 str0" d="M19.3181 192.007c3.2286,-0.6799 6.2892,0.8443 7.2155,3.6316 -1.6172,5.5589 -4.0444,9.26 -7.8942,14.1676l-1.0925 7.8272 -9.4417 8.9402 1.0974 -13.2312 4.691 -5.7345c1.3984,-4.9698 1.7934,-10.4451 5.4245,-15.6009z"/>
     <polygon id="_95719248" class="fil2" points="16.5399,197.78 22.0042,197.824 24.04,201.582 24.6186,200.449 22.6553,196.986 16.9016,196.78 "/>
     <path id="_95509904" class="fil2" d="M13.1047 215.36l-5.1621 11.3209 5.6216 -11.0112c1.5711,0.3298 2.2762,-1.4536 1.298,-2.2878 -0.9118,-0.7654 -2.8206,0.1674 -1.7575,1.9781z"/>
     <polygon id="_95508968" class="fil2" points="15.7703,200.168 20.838,200.192 22.8209,203.806 23.4295,202.776 21.4892,199.355 16.0543,199.18 "/>
     <polygon id="_94969928" class="fil2" points="15.1277,202.688 19.5314,202.754 21.3049,206.09 22.013,205.087 20.1825,201.917 15.3651,201.719 "/>
    </g>
   </g>
  </g>
 </g>
</svg>
